<svg width="48" height="48" viewBox="0 0 48 48" fill="none" xmlns="http://www.w3.org/2000/svg">
<path d="M37.8617 11.2829C35.3122 10.1131 32.5783 9.25125 29.7198 8.75762C29.6678 8.7481 29.6158 8.77191 29.589 8.81952C29.2374 9.44488 28.8479 10.2607 28.5752 10.902C25.5007 10.4417 22.442 10.4417 19.4305 10.902C19.1577 10.2465 18.7541 9.44488 18.401 8.81952C18.3741 8.77349 18.3221 8.74969 18.2701 8.75762C15.4132 9.24967 12.6793 10.1115 10.1282 11.2829C10.1061 11.2924 10.0872 11.3083 10.0746 11.3289C4.88899 19.0762 3.46842 26.6331 4.1653 34.0962C4.16845 34.1327 4.18895 34.1676 4.21733 34.1898C7.63868 36.7024 10.9528 38.2278 14.2055 39.2388C14.2575 39.2547 14.3127 39.2356 14.3458 39.1928C15.1152 38.1421 15.8011 37.0342 16.3891 35.8691C16.4238 35.8009 16.3907 35.7199 16.3198 35.6929C15.2319 35.2803 14.196 34.7771 13.1995 34.2057C13.1207 34.1597 13.1144 34.047 13.1869 33.993C13.3966 33.8359 13.6064 33.6724 13.8066 33.5073C13.8428 33.4772 13.8933 33.4708 13.9359 33.4898C20.4821 36.4786 27.5692 36.4786 34.0383 33.4898C34.0808 33.4692 34.1313 33.4756 34.1691 33.5057C34.3694 33.6708 34.5791 33.8359 34.7904 33.993C34.8629 34.047 34.8581 34.1597 34.7793 34.2057C33.7829 34.7882 32.747 35.2803 31.6575 35.6914C31.5866 35.7183 31.555 35.8009 31.5897 35.8691C32.1904 37.0325 32.8763 38.1404 33.6315 39.1912C33.663 39.2356 33.7198 39.2547 33.7718 39.2388C37.0402 38.2278 40.3544 36.7024 43.7757 34.1898C43.8057 34.1676 43.8246 34.1343 43.8278 34.0978C44.6618 25.4696 42.4308 17.9747 37.9137 11.3305C37.9026 11.3083 37.8838 11.2924 37.8617 11.2829ZM17.3667 29.5519C15.3958 29.5519 13.7719 27.7425 13.7719 25.5204C13.7719 23.2982 15.3643 21.4888 17.3667 21.4888C19.3848 21.4888 20.993 23.3141 20.9615 25.5204C20.9615 27.7425 19.369 29.5519 17.3667 29.5519ZM30.6579 29.5519C28.6871 29.5519 27.0632 27.7425 27.0632 25.5204C27.0632 23.2982 28.6556 21.4888 30.6579 21.4888C32.6761 21.4888 34.2842 23.3141 34.2527 25.5204C34.2527 27.7425 32.6761 29.5519 30.6579 29.5519Z" fill="black"/>
</svg>
