<svg width="16" height="17" viewBox="0 0 16 17" fill="none" xmlns="http://www.w3.org/2000/svg">
<path d="M8.23149 0.777451C6.7094 0.777451 5.22149 1.2288 3.95591 2.07443C2.69033 2.92006 1.70394 4.12199 1.12146 5.52822C0.538979 6.93445 0.386576 8.48183 0.683521 9.97468C0.980467 11.4675 1.71343 12.8388 2.78971 13.9151C3.86599 14.9914 5.23726 15.7243 6.73011 16.0213C8.22296 16.3182 9.77033 16.1658 11.1766 15.5833C12.5828 15.0008 13.7847 14.0145 14.6304 12.7489C15.476 11.4833 15.9273 9.99539 15.9273 8.47329C15.9241 6.43323 15.1122 4.47765 13.6697 3.03511C12.2271 1.59256 10.2716 0.780707 8.23149 0.777451ZM10.8173 10.2433C10.9246 10.352 10.9848 10.4985 10.9848 10.6512C10.9848 10.8039 10.9246 10.9505 10.8173 11.0591C10.7638 11.1128 10.7002 11.1554 10.6303 11.1845C10.5603 11.2136 10.4852 11.2285 10.4094 11.2285C10.3336 11.2285 10.2586 11.2136 10.1886 11.1845C10.1186 11.1554 10.055 11.1128 10.0015 11.0591L8.23149 9.28905L6.46145 11.0591C6.40796 11.1128 6.3444 11.1554 6.2744 11.1845C6.20441 11.2136 6.12936 11.2285 6.05357 11.2285C5.97777 11.2285 5.90273 11.2136 5.83273 11.1845C5.76274 11.1554 5.69917 11.1128 5.64569 11.0591C5.53835 10.9505 5.47815 10.8039 5.47815 10.6512C5.47815 10.4985 5.53835 10.352 5.64569 10.2433L7.41573 8.47329L5.64569 6.70325C5.54373 6.59383 5.48823 6.44912 5.49087 6.29958C5.49351 6.15005 5.55408 6.00739 5.65983 5.90163C5.76558 5.79588 5.90825 5.73531 6.05778 5.73267C6.20731 5.73003 6.35203 5.78554 6.46145 5.88749L8.23149 7.65753L10.0015 5.88749C10.111 5.78554 10.2557 5.73003 10.4052 5.73267C10.5547 5.73531 10.6974 5.79588 10.8032 5.90163C10.9089 6.00739 10.9695 6.15005 10.9721 6.29958C10.9748 6.44912 10.9192 6.59383 10.8173 6.70325L9.04725 8.47329L10.8173 10.2433Z" fill="#999999"/>
</svg>
