<svg width="48" height="48" viewBox="0 0 48 48" fill="none" xmlns="http://www.w3.org/2000/svg">
<path fill-rule="evenodd" clip-rule="evenodd" d="M24.0165 4.33325C12.9479 4.33325 4 13.3471 4 24.4985C4 33.4124 9.73324 40.9579 17.6868 43.6284C18.6812 43.8292 19.0454 43.1945 19.0454 42.6607C19.0454 42.1932 19.0126 40.5908 19.0126 38.9211C13.4445 40.1233 12.285 36.5173 12.285 36.5173C11.3902 34.1803 10.0643 33.5796 10.0643 33.5796C8.24185 32.3443 10.197 32.3443 10.197 32.3443C12.2186 32.4779 13.2794 34.4142 13.2794 34.4142C15.0686 37.4855 17.9518 36.6177 19.1118 36.0834C19.2773 34.7813 19.8079 33.8799 20.3713 33.3792C15.9303 32.9118 11.2578 31.1758 11.2578 23.43C11.2578 21.2265 12.0527 19.4237 13.3122 18.0216C13.1134 17.521 12.4173 15.4506 13.5113 12.6797C13.5113 12.6797 15.2014 12.1454 19.0122 14.7496C20.6438 14.3082 22.3263 14.0837 24.0165 14.0818C25.7067 14.0818 27.4295 14.3157 29.0205 14.7496C32.8317 12.1454 34.5218 12.6797 34.5218 12.6797C35.6158 15.4506 34.9192 17.521 34.7205 18.0216C36.0132 19.4237 36.7753 21.2265 36.7753 23.43C36.7753 31.1758 32.1028 32.8782 27.6287 33.3792C28.358 34.0135 28.9873 35.2152 28.9873 37.1184C28.9873 39.8225 28.9545 41.9928 28.9545 42.6603C28.9545 43.1945 29.3192 43.8292 30.3132 43.6288C38.2667 40.9575 43.9999 33.4124 43.9999 24.4985C44.0327 13.3471 35.052 4.33325 24.0165 4.33325Z" fill="black"/>
</svg>
