<svg width="16" height="16" viewBox="0 0 16 16" fill="none" xmlns="http://www.w3.org/2000/svg">
<path d="M9.99333 12.3167H11C13.3828 12.3167 15.3167 10.3829 15.3167 8.00001C15.3167 5.61717 13.3828 3.68334 11 3.68334H10C9.63586 3.68334 9.35 3.97847 9.35 4.33334C9.35 4.68952 9.64382 4.98334 10 4.98334H11C12.6638 4.98334 14.0167 6.33619 14.0167 8.00001C14.0167 9.66383 12.6638 11.0167 11 11.0167H9.99333C9.63716 11.0167 9.34333 11.3105 9.34333 11.6667C9.34333 12.0229 9.63716 12.3167 9.99333 12.3167Z" fill="#5030E5" stroke="#5030E5" stroke-width="0.3"/>
<path d="M5 12.3167H6C6.35618 12.3167 6.65 12.0229 6.65 11.6667C6.65 11.3105 6.35618 11.0167 6 11.0167H5C3.33618 11.0167 1.98334 9.66383 1.98334 8.00001C1.98334 6.33619 3.33618 4.98334 5 4.98334H6C6.35618 4.98334 6.65 4.68952 6.65 4.33334C6.65 3.97717 6.35618 3.68334 6 3.68334H5C2.61716 3.68334 0.683336 5.61717 0.683336 8.00001C0.683336 10.3829 2.61716 12.3167 5 12.3167Z" fill="#5030E5" stroke="#5030E5" stroke-width="0.3"/>
<path d="M5.33334 8.65H10.6667C11.0228 8.65 11.3167 8.35618 11.3167 8C11.3167 7.64382 11.0228 7.35 10.6667 7.35H5.33334C4.97716 7.35 4.68334 7.64382 4.68334 8C4.68334 8.35618 4.97716 8.65 5.33334 8.65Z" fill="#5030E5" stroke="#5030E5" stroke-width="0.3"/>
</svg>
