<svg width="94" height="94" viewBox="0 0 94 94" fill="none" xmlns="http://www.w3.org/2000/svg">
<path fillRule="evenodd" clipRule="evenodd" d="M66.8103 37.3103C66.8103 53.3076 53.842 66.2759 37.8448 66.2759C21.8476 66.2759 8.87931 53.3076 8.87931 37.3103C8.87931 21.3131 21.8476 8.34481 37.8448 8.34481C53.842 8.34481 66.8103 21.3131 66.8103 37.3103ZM61.0904 66.4079C54.7194 71.5043 46.638 74.5518 37.8448 74.5518C17.277 74.5518 0.603455 57.8782 0.603455 37.3103C0.603455 16.7425 17.277 0.0689402 37.8448 0.0689402C58.4127 0.0689402 75.0862 16.7425 75.0862 37.3103C75.0862 46.1035 72.0387 54.1849 66.9423 60.556L92.4949 86.1085C94.1109 87.7245 94.1109 90.3445 92.4949 91.9605C90.8789 93.5764 88.2589 93.5764 86.643 91.9605L61.0904 66.4079Z" fill="black"/>
</svg>
