<svg width="48" height="48" viewBox="0 0 48 48" fill="none" xmlns="http://www.w3.org/2000/svg">
<path d="M11.902 25.603V22.8278C11.902 20.8173 11.2499 18.8611 10.0436 17.2527V17.2527C8.38971 15.0475 9.96317 11.9006 12.7197 11.9006H34.5741C37.3306 11.9006 38.904 15.0475 37.2501 17.2527V17.2527C36.0438 18.8611 35.3918 20.8173 35.3918 22.8278V35.3904C35.3918 39.7147 31.8862 43.2203 27.5618 43.2203H19.7319C15.4075 43.2203 11.902 39.7147 11.902 35.3904V33.4329" stroke="#2B3F6C" stroke-width="2.93622" strokeLinecap="round"/>
<path d="M27.5609 33.4331L27.5609 21.6882" stroke="#2B3F6C" stroke-width="2.93622" strokeLinecap="round" strokeLinejoin="round"/>
<path d="M19.7314 33.4331L19.7314 21.6882" stroke="#2B3F6C" stroke-width="2.93622" strokeLinecap="round" strokeLinejoin="round"/>
<path d="M28.8085 6.64592C28.1928 6.25165 27.4648 6.0282 26.6977 6.0282H20.5963C19.8292 6.0282 19.1013 6.25165 18.4856 6.64592" stroke="#2B3F6C" stroke-width="2.93622" strokeLinecap="round"/>
</svg>
